<svg xmlns="http://www.w3.org/2000/svg" xmlns:xlink="http://www.w3.org/1999/xlink" version="1.1" x="0px" y="0px" viewBox="0 0 100 125" enable-background="new 0 0 100 100" xml:space="preserve"><path d="M71.6,60.1V39.9c0-1,0.8-1.8,1.8-1.8h20.2c1,0,1.8,0.8,1.8,1.8v20.2c0,1-0.8,1.8-1.8,1.8H73.4  C72.4,61.9,71.6,61.1,71.6,60.1z M6.3,28.4h20.2c1,0,1.8-0.8,1.8-1.8V6.3c0-1-0.8-1.8-1.8-1.8H6.3c-1,0-1.8,0.8-1.8,1.8v20.2  C4.6,27.6,5.4,28.4,6.3,28.4z M73.4,95.4h20.2c1,0,1.8-0.8,1.8-1.8V73.4c0-1-0.8-1.8-1.8-1.8H73.4c-1,0-1.8,0.8-1.8,1.8v20.2  C71.6,94.6,72.4,95.4,73.4,95.4z M73.4,28.4h20.2c1,0,1.8-0.8,1.8-1.8V6.3c0-1-0.8-1.8-1.8-1.8H73.4c-1,0-1.8,0.8-1.8,1.8v20.2  C71.6,27.6,72.4,28.4,73.4,28.4z M39.9,61.9h20.2c1,0,1.8-0.8,1.8-1.8V39.9c0-1-0.8-1.8-1.8-1.8H39.9c-1,0-1.8,0.8-1.8,1.8v20.2  C38.1,61.1,38.9,61.9,39.9,61.9z M39.9,95.4h20.2c1,0,1.8-0.8,1.8-1.8V73.4c0-1-0.8-1.8-1.8-1.8H39.9c-1,0-1.8,0.8-1.8,1.8v20.2  C38.1,94.6,38.9,95.4,39.9,95.4z M6.3,61.9h20.2c1,0,1.8-0.8,1.8-1.8V39.9c0-1-0.8-1.8-1.8-1.8H6.3c-1,0-1.8,0.8-1.8,1.8v20.2  C4.6,61.1,5.4,61.9,6.3,61.9z M39.9,28.4h20.2c1,0,1.8-0.8,1.8-1.8V6.3c0-1-0.8-1.8-1.8-1.8H39.9c-1,0-1.8,0.8-1.8,1.8v20.2  C38.1,27.6,38.9,28.4,39.9,28.4z M6.3,95.4h20.2c1,0,1.8-0.8,1.8-1.8V73.4c0-1-0.8-1.8-1.8-1.8H6.3c-1,0-1.8,0.8-1.8,1.8v20.2  C4.6,94.6,5.4,95.4,6.3,95.4z"/><text x="0" y="115" fill="#000000" font-size="5px" font-weight="bold" font-family="'Helvetica Neue', Helvetica, Arial-Unicode, Arial, Sans-serif">Created by Gregor Cresnar</text><text x="0" y="120" fill="#000000" font-size="5px" font-weight="bold" font-family="'Helvetica Neue', Helvetica, Arial-Unicode, Arial, Sans-serif"></svg>